<svg width="42" height="42" viewBox="0 0 42 42" fill="none" xmlns="http://www.w3.org/2000/svg">
    <path d="M17.2212 36.3999C16.9441 36.2453 16.5766 36.2132 16.2587 36.3737C15.7657 36.6245 15.5587 37.202 15.7949 37.6657C16.1857 38.4328 18.4112 38.7332 18.4112 38.7332C18.4112 38.7332 19.4787 36.7645 19.0849 35.9916C18.8487 35.5307 18.2595 35.3587 17.7666 35.6095C17.4487 35.767 17.2591 36.0849 17.2212 36.3999Z"
          fill="#da4953"/>
    <path d="M18.6719 18.0483L18.7857 18.1183C18.9461 18.2204 19.1298 18.3341 19.3427 18.3662C19.9232 18.4537 20.069 18.7949 20.1623 19.4804L20.1827 19.6583C20.2119 19.9266 20.244 20.2299 20.4132 20.4866L20.5182 20.6412L23.0382 20.1512L23.0994 20.0258C23.2627 19.6874 23.1227 19.2179 23.0061 18.8387L22.9827 18.7658C22.8398 18.2845 22.9244 17.9899 23.3327 17.5583C24.8932 15.9074 25.9927 13.8045 26.7977 10.9374C27.4744 8.5312 27.5473 6.54495 27.0282 4.6812C26.4273 2.53453 25.2957 1.53411 23.2423 1.3387C22.6065 1.27745 21.9619 1.0937 21.3348 0.912864C21.0752 0.839947 20.8186 0.764114 20.559 0.697031C20.314 0.635781 19.9582 0.574531 19.7044 0.778697C19.4565 0.979947 19.439 1.31828 19.4477 1.55745C19.4711 2.1087 19.5265 2.65411 19.614 3.18203C19.6752 3.54661 19.8094 3.77703 20.0252 3.88786C20.3227 4.03953 20.6582 3.9112 20.8886 3.80036L21.0315 3.73328C21.2911 3.60786 21.5623 3.47953 21.8161 3.3162C22.1311 3.11495 22.4723 3.04495 22.9623 3.09161C24.3857 3.21411 25.0098 3.74786 25.3482 5.13036C25.8352 7.12828 25.6311 9.19036 24.6832 11.8154C24.0882 13.4604 23.3502 14.8254 22.4257 15.9833C21.5332 17.1004 20.7748 17.2549 19.6315 16.5579C16.1402 14.4287 13.9557 11.7512 12.9552 8.36786C12.8736 8.09078 12.8152 7.77286 12.7744 7.37328C12.6257 5.8887 13.384 4.83578 14.8044 4.55286C15.1165 4.49161 15.4665 4.5412 15.8398 4.59078C16.0177 4.61411 16.1927 4.64036 16.3677 4.65203C16.6915 4.67536 17.0882 4.66953 17.3127 4.39828C17.5344 4.12703 17.4673 3.74203 17.3827 3.4387L17.3215 3.21411C17.2077 2.8262 17.0998 2.4237 16.954 2.03578C16.9044 1.90453 16.7557 1.50203 16.4027 1.40578C16.0819 1.31828 15.7873 1.51661 15.5948 1.67411C14.7811 2.33036 13.9061 3.01578 12.8969 3.54078C11.4502 4.2962 10.7736 5.83328 11.039 7.7612C11.2636 9.39453 11.8761 10.9433 12.9086 12.4979C14.4719 14.8574 16.4086 16.7241 18.6719 18.0483Z"
          fill="#3f7093"/>
    <path d="M30.8219 27.6062C29.9411 25.5587 27.389 24.1995 24.8748 24.4358C24.4636 24.4766 24.0757 24.5495 23.7053 24.6545C23.4223 23.6541 23.1657 22.5225 22.9498 21.2625L20.7361 21.6416C20.9869 23.1029 21.2932 24.4445 21.6519 25.652C19.0298 27.5362 17.7961 31.1091 17.2711 33.2412C16.7723 33.2791 16.2707 33.4162 15.7982 33.6554C14.8619 34.1337 14.1678 34.9445 13.844 35.945C13.5203 36.9454 13.6048 38.01 14.0803 38.9462C14.7744 40.3083 16.1569 41.0929 17.589 41.0929C18.1898 41.0929 18.7994 40.9558 19.3682 40.6641C21.299 39.6783 22.0719 37.307 21.0861 35.3733C20.7128 34.6412 20.1411 34.0783 19.4703 33.7108C20.1178 31.077 21.1444 29.0879 22.4423 27.9037C23.4923 30.4325 24.8253 32.0745 26.3244 32.6083C27.494 33.0254 28.7161 32.7541 29.7661 31.8412C31.0786 30.7066 31.4723 29.1229 30.8219 27.6062ZM20.0915 35.8837C20.7944 37.2633 20.2432 38.9608 18.8636 39.6637C18.1957 40.002 17.4344 40.0633 16.7198 39.8329C16.0053 39.5995 15.4248 39.1037 15.0836 38.4358C14.7423 37.7679 14.684 37.0066 14.9144 36.292C15.1478 35.5775 15.6436 34.997 16.3115 34.6558C16.7198 34.4487 17.1544 34.3495 17.5832 34.3495C18.6069 34.3495 19.5957 34.9125 20.0915 35.8837ZM28.2961 30.1525C27.7332 30.6425 27.354 30.5958 27.0857 30.4995C26.269 30.2079 25.2861 28.98 24.4198 26.7954C24.6386 26.737 24.8632 26.6962 25.0907 26.6758C26.8348 26.5125 28.3194 27.472 28.7598 28.4958C29.0223 29.1083 28.8707 29.6508 28.2961 30.1525Z"
          fill="#0c0d0d"/>
</svg>
